<svg width="80" height="80" viewBox="0 0 80 80" fill="none" xmlns="http://www.w3.org/2000/svg">
<path d="M57.2204 25.3732L46.6873 35.9064L50.7656 39.9847L61.2987 29.4515L57.2204 25.3732Z" fill="#333333"/>
<path d="M35.9094 46.7065L25.3762 57.2397L29.4545 61.318L39.9877 50.7848L35.9094 46.7065Z" fill="#333333"/>
<path d="M50.5173 18.706L39.9842 29.2391L44.0625 33.3174L54.5956 22.7843L50.5173 18.706Z" fill="#333333"/>
<path d="M29.2355 40.0106L18.7023 50.5437L22.7806 54.622L33.3138 44.0889L29.2355 40.0106Z" fill="#333333"/>
<path d="M22.7576 25.3729L18.6793 29.4512L29.2124 39.9844L33.2907 35.9061L22.7576 25.3729Z" fill="#333333"/>
<path d="M29.454 18.699L25.3757 22.7773L35.9089 33.3104L39.9872 29.2321L29.454 18.699Z" fill="#333333"/>
<path d="M50.7592 39.9809L46.6809 44.0592L57.2141 54.5923L61.2924 50.514L50.7592 39.9809Z" fill="#333333"/>
<path d="M44.092 46.6841L40.0137 50.7624L50.5468 61.2955L54.6251 57.2172L44.092 46.6841Z" fill="#333333"/>
</svg>
